# xmcd
#
# Track frame offsets:
#	150
#	12225
#	24450
#	36375
#	48150
#	58350
#	70800
#	83625
#	95925
#	109800
#	123075
#	134925
#	146700
#	153075
#
# Disc length: 2216 seconds
#
# Revision: 3
# Processed by: cddbd v1.5.2PL0 Copyright (c) Steve Scherf et al.
# Submitted via: audiograbber 1.83.01
#
DISCID=c708a60e
DTITLE=Hank Williams - Cheating Hearts
DYEAR=1993
DGENRE=Country
TTITLE0=Take These Chains From My Heart
TTITLE1=Long Gone Lonesome Blues
TTITLE2=You Win Again
TTITLE3=My Son Calls Another Man Daddy
TTITLE4=With Tears In My Eyes
TTITLE5=Cold Cold Heart
TTITLE6=I'm So Lonesome I Could Cry
TTITLE7=Your Cheating Heart
TTITLE8=Ramblin' Man
TTITLE9=Hey Good Looking
TTITLE10=Settin' The Woods On Fire
TTITLE11=Kaw-liga
TTITLE12=Fool About You
TTITLE13=Jambalaya
EXTD=
EXTT0=
EXTT1=
EXTT2=
EXTT3=
EXTT4=
EXTT5=
EXTT6=
EXTT7=
EXTT8=
EXTT9=
EXTT10=
EXTT11=
EXTT12=
EXTT13=
PLAYORDER=
